<svg version="1.1" id="Layer_1" xmlns="http://www.w3.org/2000/svg" xmlns:xlink="http://www.w3.org/1999/xlink" x="0px" y="0px"
	 width="100%" viewBox="0 0 1024 1024" enable-background="new 0 0 1024 1024" xml:space="preserve">
<path fill="#000000" opacity="1.000000" stroke="none" 
	d="
M506.643982,985.290344 
	C501.954590,984.614014 497.690918,983.819519 493.390991,983.377136 
	C489.599243,982.987000 488.051910,981.276306 487.645599,977.357849 
	C485.711639,958.705627 483.463867,940.085999 480.554199,921.260437 
	C476.444733,930.985840 472.336731,940.711792 468.225281,950.436401 
	C464.917236,958.260864 461.527405,966.052124 458.335388,973.923584 
	C457.164032,976.812073 455.660187,978.211975 452.318817,977.444275 
	C449.253235,976.739990 446.059906,976.597107 442.925751,976.184753 
	C434.808929,975.117004 434.555847,974.574585 433.681030,966.395447 
	C431.841370,949.195618 429.737488,932.024048 426.857483,914.532166 
	C425.314728,917.877319 423.687134,921.186279 422.244232,924.573914 
	C416.565613,937.906311 410.832275,951.217468 405.372925,964.639648 
	C403.766113,968.590027 401.959869,970.568726 397.281494,969.435669 
	C392.021637,968.161804 386.566376,967.694458 381.509766,966.924011 
	C380.629883,964.413818 381.819885,963.042542 382.532593,961.611694 
	C394.269592,938.047363 406.128387,914.543030 417.720490,890.907837 
	C419.755829,886.757935 422.041138,885.072021 426.644684,886.429688 
	C429.487610,887.268066 432.556122,887.359985 435.530365,887.730774 
	C443.388855,888.710449 443.467621,888.997192 444.330963,896.810730 
	C446.138062,913.164856 448.167145,929.494385 450.930023,946.086609 
	C455.153503,936.480164 459.391174,926.880005 463.595581,917.265259 
	C466.465363,910.702576 469.369751,904.152954 472.097565,897.531128 
	C473.392517,894.387512 475.302032,893.293091 478.704712,894.006104 
	C483.416504,894.993286 488.198547,895.696167 492.979706,896.282715 
	C495.939240,896.645752 497.156372,897.992859 497.650238,900.981812 
	C500.768433,919.854004 504.099030,938.690979 507.340179,957.542908 
	C508.908783,966.666748 510.435455,975.797729 511.934204,984.648499 
	C510.016846,986.067749 508.503662,985.250366 506.643982,985.290344 
z"/>
<path fill="#000000" opacity="1.000000" stroke="none" 
	d="
M854.994629,787.657776 
	C857.992310,799.743958 853.843445,810.826965 844.167297,817.262756 
	C836.173401,822.579651 825.060608,821.635254 815.723450,814.720276 
	C805.955017,807.485901 796.308716,800.085693 786.491943,792.918274 
	C783.296509,790.585205 782.456665,788.564758 785.393616,785.338989 
	C787.960022,782.520203 790.253296,779.391296 792.274658,776.154175 
	C794.572632,772.473877 796.705872,772.757935 799.861572,775.188904 
	C808.301697,781.690491 816.833008,788.090332 825.569824,794.183899 
	C830.606812,797.697021 835.453796,797.071411 839.204407,793.297668 
	C843.126282,789.351379 843.730103,784.158691 840.815979,779.091797 
	C839.290527,776.439514 837.038879,774.465027 834.625977,772.654175 
	C827.833252,767.556274 821.205994,762.215149 814.189880,757.445984 
	C809.923523,754.545837 809.640259,752.074219 813.010132,748.385986 
	C815.470215,745.693481 817.676514,742.708252 819.611023,739.612915 
	C821.667664,736.322083 823.566528,736.486450 826.392883,738.692261 
	C833.610535,744.325256 840.992371,749.748596 848.340027,755.213562 
	C850.072388,756.502014 851.863220,757.740417 853.741943,758.797852 
	C857.714478,761.033875 861.763794,761.322266 865.318970,758.090698 
	C869.031433,754.716248 870.698853,750.594116 868.947021,745.499146 
	C867.763428,742.056702 865.690491,739.388306 862.794861,737.233582 
	C855.447754,731.766418 848.134094,726.254028 840.833435,720.724854 
	C839.533630,719.740417 837.920410,719.042114 837.048401,716.659790 
	C840.490540,712.078674 844.129822,707.157715 847.857178,702.304382 
	C850.035767,699.467529 851.998901,701.495056 853.801819,702.846985 
	C867.524719,713.136475 881.233215,723.445496 894.905701,733.801941 
	C902.963867,739.905823 902.930847,739.949890 896.900696,747.838379 
	C896.091736,748.896729 895.262817,749.940125 894.468933,751.009583 
	C889.841858,757.242737 889.844482,757.244690 883.105835,752.837402 
	C883.676636,759.397156 883.511169,765.570862 880.151062,771.204529 
	C875.212341,779.484985 868.569702,784.831360 858.390747,784.567688 
	C856.637878,784.522278 853.830078,783.551025 854.994629,787.657776 
z"/>
<path fill="#000000" opacity="1.000000" stroke="none" 
	d="
M750.324402,822.703979 
	C756.160583,830.636597 761.690063,838.356384 767.463440,845.889282 
	C770.241394,849.513855 773.964478,851.799500 778.791565,850.407349 
	C783.541504,849.037354 786.389160,845.636108 787.298218,840.848511 
	C788.093201,836.662231 786.387817,832.988098 784.026001,829.676392 
	C778.706970,822.218140 773.273804,814.841431 767.913086,807.412720 
	C766.857178,805.949402 765.434082,804.677734 765.106384,801.933899 
	C769.743286,798.569458 774.674438,794.957336 779.644348,791.399414 
	C782.337219,789.471558 783.672302,791.804932 784.880859,793.427490 
	C791.444885,802.239746 797.882202,811.146301 804.374695,820.012024 
	C809.197144,826.597107 813.963623,833.225159 818.905701,839.719543 
	C820.864929,842.294128 820.625427,844.050720 817.962524,845.855347 
	C814.656860,848.095642 811.317383,850.351868 808.338623,852.991821 
	C804.844360,856.088684 802.301025,855.902100 800.229309,851.657043 
	C799.934814,851.053589 799.747437,850.397888 799.105042,848.685364 
	C795.105652,868.235474 780.096436,878.821899 762.194885,872.608521 
	C761.599121,878.929016 760.973389,885.119263 756.788513,890.404358 
	C745.596558,904.538940 728.897888,905.194519 717.694092,891.200989 
	C709.269165,880.678284 701.637817,869.522095 693.565857,858.713196 
	C691.801758,856.351074 692.436646,854.959045 694.642639,853.451294 
	C698.353333,850.915222 702.029785,848.305054 705.521912,845.480469 
	C708.327515,843.210999 710.032715,843.944458 711.976135,846.642883 
	C718.205383,855.292053 724.406372,863.977051 731.024780,872.325867 
	C736.917603,879.759216 745.180054,879.280579 749.456177,871.439575 
	C752.198608,866.411072 751.045837,861.353638 747.861389,856.860168 
	C742.372314,849.114807 736.857117,841.379028 731.060852,833.864563 
	C728.416931,830.436829 728.365967,828.206238 732.306702,825.954346 
	C734.891846,824.477112 737.166748,822.453979 739.568359,820.658936 
	C745.640015,816.120789 745.637268,816.117065 750.324402,822.703979 
z"/>
<path fill="#000000" opacity="1.000000" stroke="none" 
	d="
M183.445953,757.206726 
	C199.233521,751.820740 213.564270,754.207031 225.995041,764.523926 
	C237.157028,773.787781 245.833191,785.560059 255.644592,796.190125 
	C257.619446,798.329895 256.411224,799.643677 254.767075,801.120056 
	C239.421509,814.900024 224.108154,828.715820 208.776291,842.511047 
	C204.820343,846.070435 200.763321,849.520569 196.884842,853.161682 
	C194.629990,855.278503 192.958359,855.535278 190.728027,852.959717 
	C182.778381,843.779358 174.404114,834.958923 166.634521,825.632385 
	C156.901047,813.948425 152.888184,800.537231 157.309570,785.580994 
	C161.282043,772.143250 170.671097,763.281189 183.445953,757.206726 
M191.981949,778.375061 
	C171.557312,790.541809 171.873459,811.166504 192.865433,826.243286 
	C204.721893,815.567688 216.638275,804.838135 228.469757,794.184998 
	C216.343994,776.490723 206.691208,772.270142 191.981949,778.375061 
z"/>
<path fill="#000000" opacity="1.000000" stroke="none" 
	d="
M955.622742,567.314880 
	C954.206726,570.782593 951.698425,573.039246 949.093201,576.100342 
	C954.554260,576.203979 955.651855,578.671875 954.454285,583.011902 
	C953.711792,585.702576 953.695374,588.597717 953.394409,591.405518 
	C952.593323,598.876831 952.594177,598.951416 945.007629,598.112000 
	C927.649963,596.191650 910.296509,594.230835 892.950012,592.211731 
	C880.141663,590.720886 870.662964,582.759521 867.480469,570.140991 
	C863.632751,554.885498 866.993286,540.821838 875.635315,527.858337 
	C877.414734,525.189148 879.281128,524.273193 882.147583,526.477783 
	C885.042053,528.703918 889.174072,530.032715 890.903137,532.883301 
	C893.090637,536.489502 888.144226,538.928833 886.947205,542.210327 
	C884.824890,548.028076 882.615540,553.724731 884.121826,560.079041 
	C885.862000,567.419739 890.948242,570.938660 899.424866,570.116028 
	C894.492004,563.741211 893.735107,556.565796 894.969910,549.227783 
	C896.994385,537.196411 907.280396,528.024414 919.879700,526.822449 
	C925.019409,526.332092 930.171631,526.523560 935.259705,527.781982 
	C954.127686,532.448608 962.707825,548.764893 955.622742,567.314880 
M927.922424,547.385132 
	C925.770142,547.373474 923.592346,547.142090 921.469910,547.388000 
	C911.896118,548.497009 906.803162,559.633423 912.271423,567.343994 
	C916.801025,573.731018 928.416321,575.665161 935.254944,571.171143 
	C942.000977,566.737976 942.720215,556.815918 936.681335,551.414551 
	C934.401123,549.375061 931.682983,548.204285 927.922424,547.385132 
z"/>
<path fill="#000000" opacity="1.000000" stroke="none" 
	d="
M275.539703,828.255249 
	C293.513947,822.190247 305.447479,827.719971 316.075165,846.997559 
	C318.659210,841.595825 321.871674,842.916077 325.540314,845.711792 
	C328.440887,847.922302 331.616516,849.816406 334.826721,851.563049 
	C337.821899,853.192688 337.757263,854.910400 336.052002,857.547668 
	C327.376526,870.965088 318.825165,884.462769 310.246643,897.942749 
	C304.259521,907.350647 298.124268,916.671143 292.411621,926.243469 
	C290.110779,930.098816 288.007050,930.463989 284.562286,927.946533 
	C281.478333,925.692871 278.182587,923.703918 274.859802,921.809448 
	C271.575562,919.936829 270.955658,918.083923 273.284668,914.698486 
	C278.084106,907.722046 282.412750,900.421631 286.926056,893.268921 
	C285.713623,891.754517 284.290405,892.498657 283.119934,892.504883 
	C262.269806,892.615356 247.989899,873.358887 254.577560,853.526794 
	C258.191498,842.646973 264.257172,833.455505 275.539703,828.255249 
M292.310486,846.997314 
	C283.353943,847.536865 277.326630,852.882874 275.140717,862.226501 
	C273.080780,871.031433 279.759888,879.105347 288.787201,878.722961 
	C295.030731,878.458496 301.246460,873.065186 303.747314,865.742126 
	C306.928528,856.426697 302.831909,849.215942 292.310486,846.997314 
z"/>
<path fill="#000000" opacity="1.000000" stroke="none" 
	d="
M891.668701,330.585022 
	C898.511536,327.846191 905.036987,325.345551 911.456909,322.598328 
	C914.465637,321.310791 916.111572,322.096558 917.182007,325.055511 
	C918.312805,328.181213 919.625000,331.241547 920.869141,334.325958 
	C923.619995,341.145782 923.622803,341.144623 917.478271,344.560028 
	C929.426819,350.229675 934.141296,360.400970 933.626648,372.654907 
	C933.057922,386.196320 924.761414,394.787720 912.713623,399.981689 
	C902.367615,404.442017 891.888000,405.932465 881.508484,400.185303 
	C869.165588,393.351044 864.166931,379.824860 868.329590,363.614288 
	C860.532898,366.729584 853.107178,369.387054 845.964661,372.662231 
	C841.397644,374.756378 839.018921,374.109314 837.538452,369.122742 
	C836.130798,364.381165 831.651672,359.464539 833.082642,355.256439 
	C834.588379,350.828430 841.388550,350.724823 845.903687,348.870056 
	C860.979492,342.677185 876.164734,336.750702 891.668701,330.585022 
M899.526733,380.963715 
	C903.519836,380.153351 907.075684,378.542419 910.010071,375.604828 
	C916.365784,369.242401 916.144348,360.197693 909.271423,355.204254 
	C902.909790,350.582275 896.365417,351.875305 890.027283,355.311279 
	C883.193298,359.016083 880.372803,365.861755 882.678589,372.526581 
	C884.855957,378.820343 891.180420,382.222870 899.526733,380.963715 
z"/>
<path fill="#000000" opacity="1.000000" stroke="none" 
	d="
M150.306488,409.666016 
	C148.441849,419.867157 147.049515,422.237457 137.605972,431.232391 
	C143.838791,432.864624 149.653564,434.376373 155.462326,435.910919 
	C166.787430,438.902649 166.786026,438.907959 163.900055,450.071533 
	C161.275406,460.224243 161.297119,460.139709 151.008545,457.496124 
	C127.328064,451.411591 103.653969,445.296387 79.905273,439.488037 
	C75.094330,438.311401 73.940331,436.310944 75.575653,431.847595 
	C76.656830,428.896667 77.333954,425.774475 77.945282,422.680237 
	C78.807289,418.317139 80.108940,414.950623 86.988060,419.286743 
	C82.885567,411.697052 81.769882,405.353088 83.283691,398.723663 
	C86.693741,383.790070 98.043007,374.758484 113.435722,374.718323 
	C122.686104,374.694214 131.210648,377.017029 138.691376,382.648285 
	C147.554398,389.320038 151.378738,398.197174 150.306488,409.666016 
M113.361046,425.171143 
	C122.805618,426.537720 129.254395,422.603180 131.263382,414.248505 
	C132.855209,407.628662 128.319977,401.019867 120.237267,398.089081 
	C116.857269,396.863495 113.384537,396.684265 109.890396,397.150330 
	C105.031120,397.798492 101.631989,400.486115 99.781769,405.032288 
	C97.809837,409.877472 98.183922,414.473877 101.533775,418.631378 
	C104.383873,422.168671 108.268204,423.960754 113.361046,425.171143 
z"/>
<path fill="#000000" opacity="1.000000" stroke="none" 
	d="
M373.095154,144.743347 
	C368.063110,170.350937 342.576843,186.383713 318.705627,179.432068 
	C310.393890,177.011566 304.015411,171.878754 300.129547,164.446381 
	C292.260590,149.395767 285.088348,133.982086 277.510529,118.777084 
	C276.010223,115.766716 276.881866,114.230873 279.710236,112.962845 
	C283.356415,111.328140 287.071716,109.730431 290.431183,107.602074 
	C294.964264,104.730171 297.066437,106.359245 299.059021,110.729683 
	C304.310394,122.247856 309.908844,133.607895 315.381226,145.025101 
	C316.389130,147.127869 317.355286,149.259689 318.509613,151.281677 
	C323.577728,160.159210 332.180725,162.959930 341.055237,158.689743 
	C349.956390,154.406754 353.138702,146.019379 348.769531,136.467545 
	C342.533722,122.834755 336.045746,109.303711 329.174591,95.982414 
	C326.730896,91.244781 327.798279,89.249069 332.329346,87.501366 
	C336.201599,86.007774 339.873413,83.976799 343.580109,82.078522 
	C345.827087,80.927788 347.308228,81.397560 348.405029,83.676674 
	C356.060394,99.584457 364.187378,115.274605 370.973114,131.583771 
	C372.625427,135.555023 373.209961,139.929535 373.095154,144.743347 
z"/>
<path fill="#000000" opacity="1.000000" stroke="none" 
	d="
M656.895996,156.178833 
	C645.031433,160.908173 633.898438,158.702850 623.095459,154.062317 
	C613.153320,149.791534 604.805298,143.266586 598.028687,134.748795 
	C596.030823,132.237625 595.708496,130.223755 598.319702,127.936165 
	C602.038208,124.678497 604.956665,120.545044 609.458557,117.432167 
	C612.696411,121.888123 616.067810,125.959877 620.026245,129.483215 
	C625.188965,134.078461 630.796204,137.790054 637.770142,139.141647 
	C641.217468,139.809769 644.271790,139.429367 646.077148,136.305786 
	C648.046570,132.898300 646.766663,129.609787 643.914429,127.417007 
	C638.121643,122.963600 632.011780,118.925484 626.122498,114.593933 
	C619.369019,109.626816 613.743042,103.944969 613.693298,94.693306 
	C613.614075,79.959892 626.113037,68.650810 642.062073,69.933212 
	C657.499390,71.174477 670.913086,77.359978 682.042847,88.330437 
	C684.671997,90.922005 685.305969,92.994316 682.204712,95.698250 
	C679.452820,98.097542 676.963440,100.820198 674.523193,103.547714 
	C672.533813,105.771225 670.909241,105.905769 668.777954,103.655701 
	C664.401611,99.035461 659.325256,95.262100 653.759521,92.167625 
	C650.827576,90.537506 647.761230,89.257477 644.359924,89.047043 
	C642.094666,88.906898 639.946777,89.250542 638.799194,91.521111 
	C637.637024,93.820839 637.971375,96.099571 639.558899,98.075417 
	C641.872498,100.954948 644.796753,103.172394 647.802917,105.281242 
	C652.026367,108.244057 656.322144,111.111343 660.446045,114.207291 
	C676.102783,125.961456 674.493408,146.718475 656.895996,156.178833 
z"/>
<path fill="#000000" opacity="1.000000" stroke="none" 
	d="
M886.009766,229.063324 
	C889.221741,232.410629 887.203613,234.184311 884.651245,236.021347 
	C874.657532,243.213898 864.711365,250.472549 854.763733,257.728912 
	C853.879211,258.374176 852.595276,258.694275 852.428894,260.726624 
	C860.428467,261.726624 868.427612,262.880615 876.463074,263.659515 
	C879.948486,263.997345 882.237000,265.396759 884.139648,268.313904 
	C887.445801,273.383118 891.114868,278.215637 895.288513,284.068268 
	C887.274597,284.342529 880.789124,282.855682 874.300354,281.978088 
	C860.446594,280.104401 860.513672,279.948669 855.359131,292.863556 
	C851.365845,302.868927 847.245789,312.823669 842.819946,323.689850 
	C836.657776,317.133270 832.278870,310.556732 828.059937,303.892944 
	C826.994995,302.210815 828.401367,300.354706 829.140991,298.711182 
	C832.201538,291.910828 835.313110,285.133484 838.539551,278.054474 
	C833.634277,275.747986 829.714050,275.774200 825.380676,279.064667 
	C815.232117,286.770691 815.028381,286.626404 807.595703,276.353607 
	C801.387207,267.772522 800.978088,269.713959 809.569763,263.421082 
	C829.977722,248.473526 850.471008,233.640289 870.733032,218.497528 
	C874.684082,215.544708 876.851868,215.789612 879.304932,219.923340 
	C881.163086,223.054718 883.610718,225.836319 886.009766,229.063324 
z"/>
<path fill="#000000" opacity="1.000000" stroke="none" 
	d="
M253.079224,153.105347 
	C249.729782,155.615814 246.717499,157.986481 243.599655,160.209061 
	C241.351639,161.811554 241.298203,163.285446 242.835876,165.596939 
	C250.995117,177.862244 250.941238,177.907776 262.802734,169.033951 
	C268.137695,165.042770 273.504333,161.090500 278.746857,156.980621 
	C281.263397,155.007751 283.136780,155.091797 284.873596,157.869720 
	C285.842194,159.418945 287.022644,160.835190 288.097656,162.318573 
	C293.333466,169.543457 294.215393,168.006012 286.035492,174.328278 
	C279.448029,179.419693 272.737854,184.357071 265.979218,189.219788 
	C263.351379,191.110458 263.116943,192.807327 265.120331,195.359970 
	C269.438690,200.862411 273.294647,206.744293 277.820038,212.062225 
	C281.054535,215.863159 280.505676,218.096725 276.516815,220.672028 
	C272.077362,223.538284 267.966705,226.913849 263.247742,230.412598 
	C258.759857,224.489441 254.546875,218.968109 250.375137,213.415787 
	C238.367752,197.434860 226.450806,181.385025 214.313934,165.503189 
	C212.044510,162.533508 212.192963,161.004013 215.229019,158.765274 
	C229.839478,147.991714 244.327621,137.050293 258.754822,126.031815 
	C261.766418,123.731781 263.585815,123.778496 265.998718,126.983482 
	C273.701263,137.214478 273.843170,137.142899 263.745178,145.093658 
	C260.345428,147.770477 256.832428,150.303436 253.079224,153.105347 
z"/>
<path fill="#000000" opacity="1.000000" stroke="none" 
	d="
M927.809082,451.707642 
	C941.908569,452.951721 951.441589,460.108917 956.088623,472.739410 
	C961.528076,487.523529 961.032166,501.981781 949.655701,514.263794 
	C940.162842,524.512207 927.885803,526.320129 915.142395,523.033691 
	C901.933838,519.627258 894.799500,509.736298 891.900879,496.801483 
	C889.523865,486.193970 890.390564,475.737366 896.466736,466.519226 
	C903.669006,455.592590 914.364868,451.045929 927.809082,451.707642 
M911.026978,496.349304 
	C915.884033,503.495361 928.923950,503.010956 934.373291,499.614014 
	C937.908020,497.410583 940.439575,494.515686 940.903625,490.127930 
	C941.614746,483.403839 939.111633,478.261230 933.655029,475.542023 
	C927.287842,472.369049 916.977112,473.894684 912.160950,478.722351 
	C907.739197,483.154633 907.225708,488.683380 911.026978,496.349304 
z"/>
<path fill="#000000" opacity="1.000000" stroke="none" 
	d="
M77.550262,464.579956 
	C88.514046,453.910675 102.973373,450.991882 116.398239,457.008728 
	C129.997086,463.103638 136.163361,474.120789 136.269501,488.793274 
	C136.372192,502.990631 132.185989,515.315430 119.177994,522.551025 
	C106.811974,529.429565 93.882561,528.679749 82.294090,520.836548 
	C70.799789,513.057007 67.286568,501.067566 68.350838,487.605225 
	C69.021141,479.126312 71.458214,471.304321 77.550262,464.579956 
M110.997475,478.350677 
	C109.108879,477.748352 107.259514,476.929230 105.325264,476.579224 
	C93.648659,474.466370 84.650879,482.281525 86.287964,493.020325 
	C87.524101,501.128967 97.385864,506.385101 107.105377,504.182617 
	C112.894569,502.870758 117.197784,499.902771 118.563896,493.833313 
	C119.948273,487.682739 117.543526,482.618896 110.997475,478.350677 
z"/>
<path fill="#000000" opacity="1.000000" stroke="none" 
	d="
M710.886108,188.767395 
	C707.342651,179.321442 709.902710,171.681107 716.734070,165.367645 
	C723.348145,159.255035 730.909912,159.641876 738.621277,163.071350 
	C744.751221,165.797516 749.968201,170.005844 755.508667,173.688568 
	C756.830994,174.567474 758.202515,176.188171 759.939575,174.972137 
	C761.546814,173.846954 761.841675,171.905518 761.636902,170.002762 
	C761.247864,166.388443 758.926941,164.016281 756.232910,161.954208 
	C751.484741,158.319901 745.936707,156.480087 740.169128,155.483353 
	C736.776001,154.896927 736.037659,153.225693 736.786316,150.285248 
	C739.942444,137.888168 736.445374,137.223923 751.028259,141.614594 
	C761.242920,144.690079 770.398804,149.643127 777.530090,157.790833 
	C784.516479,165.772888 785.753296,176.167557 780.011169,185.059326 
	C772.518616,196.661575 764.404663,207.861374 756.637817,219.288544 
	C754.991272,221.711060 753.340210,221.571381 751.234253,220.051315 
	C747.994385,217.712738 744.748718,215.372482 741.393005,213.207291 
	C738.612732,211.413406 736.478027,209.553970 739.267517,205.652161 
	C726.557678,204.983368 716.956116,200.062653 710.886108,188.767395 
M729.659363,184.334839 
	C732.917847,192.511078 743.010620,196.237656 748.979492,191.398743 
	C751.642944,189.239487 753.112427,186.874222 749.202759,184.376328 
	C746.551270,182.682251 744.036255,180.764572 741.328918,179.169861 
	C735.389465,175.671295 732.150024,176.962845 729.659363,184.334839 
z"/>
<path fill="#000000" opacity="1.000000" stroke="none" 
	d="
M906.387146,713.837769 
	C900.272522,716.047180 894.617432,715.850586 889.000000,713.425354 
	C876.922852,708.211426 864.840698,703.007812 852.721130,697.893738 
	C849.651367,696.598328 848.663574,694.994934 850.353394,691.784424 
	C852.131958,688.405029 853.609253,684.839966 854.912781,681.245239 
	C856.191772,677.717773 857.893005,675.594788 862.456055,678.359314 
	C860.589844,669.145691 861.921326,661.152954 866.376831,653.743591 
	C870.963562,646.115967 878.744507,642.236877 887.581238,643.790039 
	C895.492920,645.180664 901.593567,649.313660 903.742615,657.512756 
	C905.361633,663.689758 904.101196,669.751465 901.690552,675.557678 
	C899.903137,679.862793 898.051025,684.144165 896.102722,688.378540 
	C894.504944,691.851196 895.992737,692.940491 899.278564,692.939331 
	C903.116333,692.937988 905.387451,690.606445 907.133179,687.613281 
	C910.407715,681.999268 911.604858,675.803589 911.605896,669.410522 
	C911.606445,666.038879 912.730591,664.725220 916.232605,664.650391 
	C927.857483,664.402100 928.033691,664.300659 927.205383,675.882935 
	C926.495850,685.805115 923.866394,695.216064 918.249634,703.617859 
	C915.312622,708.011108 911.630371,711.515503 906.387146,713.837769 
M875.536621,681.740967 
	C880.433533,688.048706 882.858704,687.795288 885.935242,680.567322 
	C887.033386,677.987183 887.988525,675.340820 888.896545,672.686340 
	C890.018311,669.406860 889.076599,666.799622 885.982361,665.156189 
	C882.694397,663.409729 879.779968,664.273621 877.594360,667.038574 
	C874.295654,671.211670 873.381653,675.920898 875.536621,681.740967 
z"/>
<path fill="#000000" opacity="1.000000" stroke="none" 
	d="
M194.062119,733.522461 
	C191.630630,752.590576 166.675659,768.159729 147.980743,760.299683 
	C134.151321,754.485291 126.774170,743.336487 124.801437,728.932068 
	C122.651932,713.236755 134.272232,702.539612 144.333588,696.877808 
	C147.774551,694.941528 148.813812,697.268005 150.072433,699.361755 
	C155.990372,709.206177 161.819550,719.103882 167.723846,728.956604 
	C168.638107,730.482300 169.237823,732.312317 171.037613,733.147827 
	C175.271469,729.253540 176.291122,722.839111 173.460266,717.320923 
	C171.088821,712.698364 167.497467,709.242188 162.564957,707.562439 
	C159.631226,706.563354 159.128525,704.809387 159.808304,702.205322 
	C160.228409,700.596008 160.662674,698.990356 161.089447,697.382751 
	C163.102509,689.800476 163.879105,689.538940 171.246185,692.931580 
	C183.362137,698.511353 196.378799,716.399475 194.062119,733.522461 
M156.545242,741.968933 
	C158.246231,741.609863 160.213821,741.197876 158.892471,738.848999 
	C155.369186,732.585815 151.663589,726.425171 148.030167,720.223206 
	C142.418991,723.778503 140.573212,727.972046 141.953217,732.733459 
	C143.825058,739.191833 148.163727,742.118408 156.545242,741.968933 
z"/>
<path fill="#000000" opacity="1.000000" stroke="none" 
	d="
M348.621460,880.964966 
	C346.401215,881.636597 345.480469,880.576965 344.823914,879.066589 
	C344.027466,877.234497 343.226562,875.404236 342.436249,873.569458 
	C339.260590,866.196655 339.407318,865.898438 347.072235,864.087219 
	C365.378296,859.761536 387.189636,871.075012 392.650208,887.931274 
	C396.877136,900.979370 392.648499,912.403320 384.353333,922.253296 
	C376.098755,932.054993 364.912750,934.816284 352.654602,931.793030 
	C339.098053,928.449524 328.409149,921.479980 325.252777,906.652832 
	C323.516113,898.494812 325.546997,890.815613 328.716888,883.334534 
	C330.145172,879.963867 332.442383,880.873291 334.900391,881.873962 
	C345.541077,886.205872 356.193420,890.509399 366.858307,894.781494 
	C368.490997,895.435547 370.059540,896.604004 371.995361,895.940552 
	C373.220856,884.539612 363.195587,878.001953 348.621460,880.964966 
M364.801147,907.440369 
	C358.415314,904.883972 352.029480,902.327576 345.648438,899.773071 
	C343.042755,906.522400 345.079071,911.838196 350.919434,914.747864 
	C356.327484,917.442017 363.632294,915.695007 366.522400,911.158569 
	C367.657745,909.376404 367.107544,908.448181 364.801147,907.440369 
z"/>
<path fill="#000000" opacity="1.000000" stroke="none" 
	d="
M639.159668,883.350342 
	C648.520264,867.453430 666.713318,858.810791 682.905273,862.763916 
	C697.869690,866.417236 705.235535,877.334839 707.800171,891.550171 
	C710.199463,904.848694 705.523865,915.880371 694.204590,923.581970 
	C686.743286,928.658630 678.345215,931.803284 669.280640,930.940979 
	C654.846375,929.567688 646.857361,920.581299 641.205139,906.476318 
	C639.971008,903.396729 642.395081,902.763550 644.348450,901.923645 
	C655.202637,897.256714 666.077698,892.638245 676.931885,887.971252 
	C678.405945,887.337402 680.110474,887.017212 681.129883,885.589905 
	C676.891174,880.081238 670.764404,878.658630 664.175110,881.550354 
	C661.071045,882.912598 658.592407,885.064819 656.245361,887.493591 
	C654.498474,889.301147 654.382202,893.401062 651.046936,892.787537 
	C646.845032,892.014709 642.674133,890.515686 639.007446,888.149658 
	C637.044006,886.882568 638.491028,885.182007 639.159668,883.350342 
M687.766418,901.617615 
	C687.615784,900.365295 688.144836,898.920410 686.277161,897.674561 
	C680.650574,900.058533 674.724365,902.528687 668.833130,905.079590 
	C664.699219,906.869507 664.458374,908.282227 667.860413,911.370544 
	C670.845398,914.080261 674.215088,915.386353 678.342834,913.932068 
	C683.882751,911.980347 687.223511,908.367188 687.766418,901.617615 
z"/>
<path fill="#000000" opacity="1.000000" stroke="none" 
	d="
M141.545609,354.982849 
	C145.184174,357.219177 150.627441,355.983582 153.679779,352.143311 
	C157.549515,347.274597 159.836136,341.714508 158.119522,335.417358 
	C157.095642,331.661377 158.174637,329.767365 161.808395,328.875427 
	C163.250809,328.521362 164.605209,327.809937 166.001175,327.265106 
	C172.537537,324.714050 173.171982,325.040314 174.757782,331.762848 
	C179.158569,350.418610 164.813492,373.982208 146.635239,377.353577 
	C132.970718,379.887817 121.646034,374.851501 112.751869,364.658112 
	C104.304749,354.977081 103.336121,343.761841 107.669754,331.906464 
	C115.545654,310.360626 134.589111,302.754272 155.164932,312.754425 
	C158.678421,314.462006 159.258514,316.152802 157.573471,319.685547 
	C152.056290,331.252441 146.865112,342.974792 141.545609,354.982849 
M123.375473,335.052368 
	C121.170998,342.366486 122.679932,346.838501 129.240540,351.192230 
	C132.448761,343.802063 136.584671,336.938110 138.740692,329.197052 
	C131.860809,326.457947 127.641571,328.025818 123.375473,335.052368 
z"/>
<path fill="#000000" opacity="1.000000" stroke="none" 
	d="
M94.975822,631.289062 
	C78.281197,623.973206 72.556519,599.631531 77.594337,586.404114 
	C81.493233,576.167053 95.386436,565.996155 106.250984,565.818359 
	C109.681854,565.762207 109.783936,568.335449 110.248978,570.491943 
	C112.663757,581.689636 114.958084,592.913330 117.322906,604.121887 
	C117.662987,605.733826 118.157806,607.312988 118.582619,608.913391 
	C124.763229,606.999695 127.901947,600.939453 126.427483,593.822449 
	C125.491776,589.305908 123.488045,585.261475 119.844620,582.348999 
	C117.156670,580.200256 117.065376,578.169189 119.062614,575.585938 
	C120.176552,574.145203 121.018120,572.494568 121.990509,570.943542 
	C125.316376,565.638855 125.910408,565.537903 130.594238,569.464294 
	C142.330521,579.302673 147.486954,599.473877 141.913696,613.744324 
	C135.190552,630.959106 113.711777,639.117920 94.975822,631.289062 
M104.665016,604.618408 
	C103.920067,600.888184 103.241653,597.143188 102.413193,593.431580 
	C101.396561,588.877258 99.767044,588.334290 96.034241,591.174255 
	C91.814796,594.384460 90.525146,600.175049 92.853706,605.454712 
	C95.139984,610.638489 99.891739,613.152222 105.663849,612.187134 
	C106.246460,609.829834 105.138847,607.674438 104.665016,604.618408 
z"/>
<path fill="#000000" opacity="1.000000" stroke="none" 
	d="
M463.333313,64.928223 
	C465.059265,82.232346 466.782227,99.085106 468.489777,115.939423 
	C468.823578,119.233879 469.830963,120.811440 473.869019,120.220055 
	C482.410980,118.969040 491.085144,118.648476 499.660461,117.585884 
	C503.816010,117.070953 505.501434,118.447914 505.532623,122.530846 
	C505.548981,124.676620 506.095856,126.812675 506.265808,128.963974 
	C506.854248,136.413528 506.830688,136.408768 499.568268,137.107788 
	C484.175781,138.589325 468.769806,139.949890 453.401917,141.653778 
	C449.504852,142.085876 448.156677,141.212341 447.768188,137.169464 
	C445.336761,111.867615 442.685364,86.586372 439.968842,61.313129 
	C439.638641,58.241165 440.308838,56.355427 443.503601,56.111649 
	C449.440704,55.658615 455.322754,54.332664 461.599365,54.737041 
	C462.640503,57.974014 463.181091,61.184250 463.333313,64.928223 
z"/>
<path fill="#000000" opacity="1.000000" stroke="none" 
	d="
M374.596924,100.328033 
	C372.325745,91.586861 370.155853,83.239365 367.906799,74.587395 
	C374.253723,71.750877 380.670319,70.676720 386.863800,68.950340 
	C389.935120,68.094246 390.325684,70.877899 390.867554,72.894104 
	C394.366547,85.912918 397.773376,98.956467 401.252411,111.980690 
	C402.754578,117.604233 404.525665,123.161598 405.848633,128.825165 
	C406.612183,132.093704 408.038574,132.699997 411.143768,131.785965 
	C419.441071,129.343674 427.882477,127.382019 436.146362,124.838753 
	C440.156647,123.604568 442.275421,124.123558 443.286530,128.550659 
	C446.952423,144.601501 449.501129,140.929840 433.864899,145.368561 
	C421.057129,149.004395 408.143768,152.273605 395.372162,156.028397 
	C391.353516,157.209824 389.700989,156.241547 388.660095,152.290329 
	C384.123535,135.069855 379.371765,117.906090 374.596924,100.328033 
z"/>
<path fill="#000000" opacity="1.000000" stroke="none" 
	d="
M790.325623,232.510757 
	C794.222900,237.260269 798.550232,240.364349 804.733826,239.328384 
	C806.790649,238.983810 807.377808,240.358719 807.828125,241.816788 
	C808.760132,244.834213 809.614990,247.876434 810.449524,250.922745 
	C812.098083,256.940216 811.533630,258.137787 805.165344,258.122833 
	C789.569397,258.086243 778.807251,249.672424 771.548584,236.704041 
	C765.026367,225.051407 766.744568,213.531693 774.596008,202.997757 
	C783.999634,190.381332 797.283997,185.207047 810.288330,188.749100 
	C824.661194,192.663879 836.243042,205.779678 838.097229,220.292267 
	C838.265198,221.606659 838.277527,222.954483 838.224304,224.281250 
	C838.009155,229.637192 837.151672,230.271820 831.817749,229.109131 
	C830.517212,228.825638 829.244812,228.340149 827.932251,228.196732 
	C822.639282,227.618423 819.756531,225.554642 818.713257,219.517273 
	C816.958801,209.363953 806.622803,205.570709 797.883667,211.000031 
	C789.699097,216.084824 786.720886,224.222977 790.325623,232.510757 
z"/>
<path fill="#000000" opacity="1.000000" stroke="none" 
	d="
M127.862289,696.879333 
	C122.526978,701.561279 117.452446,706.002869 111.888527,710.872803 
	C108.441940,704.171570 106.190819,697.969666 104.046288,691.744202 
	C103.277466,689.512390 105.462448,688.603882 106.841820,687.510803 
	C115.580482,680.585693 124.350838,673.700623 133.100143,666.788940 
	C135.005600,665.283691 136.868011,663.723938 139.927444,661.229492 
	C132.034988,661.794678 125.646156,662.247253 119.258133,662.710938 
	C112.126839,663.228577 104.987961,663.665649 97.869003,664.318970 
	C94.481964,664.629761 92.686356,663.351318 91.602867,660.128723 
	C89.923843,655.134888 87.848328,650.274353 86.027420,645.580261 
	C87.986847,643.346130 90.113243,643.912537 92.022713,643.899170 
	C112.164658,643.758057 132.307709,643.736328 152.448471,643.506714 
	C155.402939,643.473022 157.069061,644.287476 158.043106,647.122742 
	C159.609711,651.682922 161.384888,656.175964 163.210037,660.640991 
	C164.242416,663.166565 163.691879,664.801697 161.582733,666.656921 
	C150.338394,676.547363 139.259308,686.625671 127.862289,696.879333 
z"/>
<path fill="#000000" opacity="1.000000" stroke="none" 
	d="
M699.886230,153.782623 
	C699.265076,155.006363 698.808167,155.894150 698.373901,156.792877 
	C694.903931,163.974655 695.823486,166.041229 703.752319,167.823563 
	C706.976868,168.548416 708.560303,169.840759 707.360962,173.261948 
	C707.253235,173.569397 707.270813,173.919708 707.220825,174.248703 
	C705.551758,185.235550 704.026245,186.287857 693.405090,183.035721 
	C690.253662,182.070770 687.136047,180.702454 684.316345,178.999832 
	C674.081543,172.819611 671.165344,162.744110 676.307739,151.949081 
	C680.306519,143.554657 684.383484,135.197449 688.316406,127.049995 
	C686.812622,123.933540 682.230347,124.518867 681.987366,121.377228 
	C681.713379,117.835396 684.219666,114.823364 685.856873,111.809517 
	C688.774109,106.439598 691.740173,112.887604 695.498474,111.773636 
	C698.179138,109.013855 699.490967,104.648193 701.452148,100.714661 
	C702.926697,97.757095 704.395508,96.658844 707.598022,98.423744 
	C711.671509,100.668648 715.919861,102.607765 720.153503,104.546104 
	C722.714478,105.718674 723.113586,107.218040 721.781433,109.672241 
	C719.647034,113.604576 717.753784,117.667770 715.644409,121.904976 
	C719.032959,124.887108 723.195007,126.183907 726.931396,128.173782 
	C729.460327,129.520584 730.291382,130.957886 728.890076,133.700089 
	C722.951538,145.321259 725.343872,143.943542 714.883179,139.056320 
	C713.086304,138.216843 711.297424,137.360199 708.697510,136.129227 
	C705.768738,142.003494 702.914917,147.727615 699.886230,153.782623 
z"/>
<path fill="#000000" opacity="1.000000" stroke="none" 
	d="
M117.547302,534.485596 
	C122.648521,534.096619 127.292130,533.813049 131.926514,533.420471 
	C133.986633,533.245972 135.094498,533.990112 135.241150,536.096191 
	C135.598892,541.233215 135.934341,546.372314 136.365295,551.503357 
	C136.607620,554.388489 135.186401,555.155212 132.542603,555.344971 
	C111.490921,556.856201 90.448883,558.501221 69.400803,560.063599 
	C62.934795,560.543518 56.455944,560.849976 49.989491,561.324585 
	C47.115414,561.535522 45.570404,560.403015 45.396252,557.484497 
	C45.099213,552.506470 44.675465,547.533081 44.513908,542.550964 
	C44.387985,538.667847 47.660374,539.247375 49.922859,539.063171 
	C59.531929,538.280579 69.155418,537.671448 78.775955,537.033936 
	C91.544823,536.187866 104.315849,535.374268 117.547302,534.485596 
z"/>
<path fill="#000000" opacity="1.000000" stroke="none" 
	d="
M195.600800,310.531219 
	C193.416763,313.913849 191.286026,316.908081 189.483231,320.088257 
	C187.808075,323.043304 186.103210,323.596008 183.125168,321.621246 
	C167.033737,310.950775 150.860611,300.403107 134.675797,289.874359 
	C131.960052,288.107697 131.740280,286.323425 133.603546,283.732361 
	C135.932602,280.493622 138.114365,277.125305 140.076584,273.652924 
	C142.131668,270.016235 144.389175,268.736359 147.824661,271.975037 
	C148.406494,272.523560 149.146729,273.009521 150.358704,272.602539 
	C149.251099,266.548584 149.203613,260.507324 151.909393,254.692017 
	C153.234665,251.843719 154.804581,250.731323 157.609894,252.924286 
	C158.786880,253.844376 160.108246,254.577362 161.335846,255.435638 
	C164.057434,257.338409 167.647293,258.725433 169.237137,261.328156 
	C171.029892,264.263092 167.028488,266.736694 166.106186,269.682922 
	C163.764847,277.162262 165.443451,283.281891 171.873932,287.642761 
	C179.174332,292.593628 186.478867,297.559601 194.019485,302.126160 
	C197.877136,304.462402 198.960022,306.692108 195.600800,310.531219 
z"/>
<path fill="#000000" opacity="1.000000" stroke="none" 
	d="
M890.940063,623.242310 
	C888.792908,622.629028 887.066467,622.002930 885.291748,621.578247 
	C876.564148,619.489807 878.630188,619.228027 880.286255,612.200195 
	C880.590698,610.908142 881.052917,609.654053 881.414246,608.374512 
	C884.242126,598.362122 884.220520,598.432373 894.448730,601.245911 
	C910.475098,605.654358 926.495361,610.094849 942.597046,614.213623 
	C947.091064,615.363220 948.353943,617.336792 946.777039,621.595215 
	C945.856750,624.080566 945.360718,626.721008 944.633301,629.280212 
	C942.445129,636.978882 942.437256,636.976624 934.272522,635.376587 
	C935.637146,639.419495 938.424255,642.698975 938.634705,646.861633 
	C938.709839,648.347229 939.135864,649.837280 939.050232,651.304871 
	C938.705322,657.215210 937.631226,657.947449 931.971985,656.395813 
	C931.010437,656.132202 930.072937,655.773193 929.103638,655.546997 
	C926.031128,654.830078 922.439331,654.797363 920.182678,652.698853 
	C917.587708,650.285767 920.542786,647.152222 920.638794,644.289124 
	C920.889404,636.815796 917.174255,630.875549 910.036377,628.612488 
	C903.865051,626.655823 897.575745,625.071350 890.940063,623.242310 
z"/>
<path fill="#000000" opacity="1.000000" stroke="none" 
	d="
M602.098511,934.121826 
	C611.920959,929.278748 614.508423,923.878052 612.018250,913.721619 
	C609.955994,905.310547 607.911987,896.892029 605.631226,888.539185 
	C604.780212,885.422302 605.439758,883.983215 608.706665,883.303040 
	C613.098145,882.388611 617.411377,881.074890 621.726013,879.821960 
	C624.766541,878.938965 626.349792,879.958130 627.123474,883.032959 
	C631.834595,901.755432 636.564392,920.473938 641.479614,939.143372 
	C642.336914,942.399780 641.430847,943.769226 638.360046,944.444397 
	C634.457275,945.302429 630.515076,946.112488 626.741150,947.389893 
	C622.687927,948.761841 620.351501,947.928467 619.763428,943.465820 
	C619.637329,942.508484 619.565491,941.440735 618.345154,940.628662 
	C615.583862,946.618164 611.240234,950.986938 605.144592,953.601440 
	C602.148865,954.886230 600.427429,954.318909 599.712524,950.976013 
	C599.051880,947.887085 598.435730,944.738586 597.293274,941.814270 
	C595.469177,937.145447 597.143921,934.935059 602.098511,934.121826 
z"/>
<path fill="#000000" opacity="1.000000" stroke="none" 
	d="
M942.126099,402.083008 
	C944.226624,401.984497 944.822327,403.144928 945.119446,404.522217 
	C946.206848,409.561829 947.377563,414.587860 948.287903,419.660095 
	C949.288818,425.236969 943.815918,423.155548 941.348572,425.336823 
	C943.598999,427.848755 947.207886,428.825470 949.053162,431.757843 
	C949.582703,432.599365 950.305420,433.317169 950.865967,434.141724 
	C956.045105,441.760010 955.402649,443.457031 946.610046,445.474396 
	C946.123901,445.585907 945.650879,445.753998 945.165649,445.870239 
	C936.692566,447.900482 936.692444,447.899628 933.367065,440.046387 
	C930.241211,432.664001 923.479065,429.040649 915.575745,430.675659 
	C907.101501,432.428741 898.617188,434.160461 890.212769,436.211060 
	C886.055908,437.225342 883.608337,436.833496 883.108887,431.865173 
	C882.745911,428.255280 881.764282,424.663696 880.680237,421.181732 
	C879.450684,417.232483 880.635742,415.548920 884.705078,414.685730 
	C903.741577,410.647797 922.723938,406.354889 942.126099,402.083008 
z"/>
<path fill="#000000" opacity="1.000000" stroke="none" 
	d="
M552.518188,108.580383 
	C547.942200,108.127472 543.824646,107.657433 539.693848,107.407646 
	C537.157593,107.254265 536.215698,106.236076 536.447998,103.645821 
	C537.527100,91.617760 535.831909,93.344116 547.380981,93.932281 
	C553.490723,94.243431 559.563049,95.262978 565.672302,95.619835 
	C569.447205,95.840332 570.500366,97.421143 570.009399,101.012344 
	C568.811157,109.775841 568.906311,109.812706 559.888977,109.333992 
	C557.577576,109.211288 555.276794,108.887566 552.518188,108.580383 
z"/>
<path fill="#000000" opacity="1.000000" stroke="none" 
	d="
M541.259521,896.369751 
	C547.990906,891.517639 554.119019,891.793518 557.863037,896.814453 
	C560.915283,900.907837 560.856506,906.555054 557.723022,910.253906 
	C554.580139,913.963867 548.991333,915.116760 544.519531,912.977478 
	C540.203796,910.913025 537.845032,905.677734 539.156677,900.719238 
	C539.531250,899.303223 540.370789,898.010132 541.259521,896.369751 
z"/>
<path fill="#000000" opacity="1.000000" stroke="none" 
	d="
M216.128723,254.799957 
	C217.822144,245.713867 224.636093,241.157578 231.239609,244.419922 
	C235.683670,246.615433 237.906815,250.293442 237.403305,255.335541 
	C236.894135,260.434418 233.659195,263.445648 229.066513,264.752289 
	C224.220459,266.131012 220.788620,263.322327 218.084824,259.709747 
	C217.132812,258.437775 216.795883,256.705414 216.128723,254.799957 
z"/>
</svg>